<svg width="24" height="24" viewBox="0 0 24 24" fill="none" xmlns="http://www.w3.org/2000/svg">
<path d="M3.8942 11.3991L7.7566 12.8732L9.26227 17.8317C9.32773 18.1667 9.72052 18.2337 9.98238 18.0327L12.1427 16.2235C12.3391 16.0225 12.6664 16.0225 12.9283 16.2235L16.7907 19.1048C17.0525 19.3058 17.4453 19.1718 17.5108 18.8367L20.3912 4.76552C20.4566 4.43049 20.1293 4.09546 19.802 4.22947L3.8942 10.528C3.50141 10.662 3.50141 11.2651 3.8942 11.3991ZM9.06589 12.1362L16.6597 7.37875C16.7906 7.31174 16.9216 7.51276 16.7907 7.57977L10.5716 13.5433C10.3752 13.7443 10.1788 14.0123 10.1788 14.3474L9.98238 15.9555C9.98238 16.1565 9.65506 16.2235 9.58959 15.9555L8.80401 13.0072C8.60762 12.6722 8.73856 12.2702 9.06589 12.1362Z" fill="#FEFEFE"/>
</svg>
