<svg width="24" height="24" viewBox="0 0 24 24" fill="none" xmlns="http://www.w3.org/2000/svg">
<path d="M20.8328 16.7671C20.8328 16.6849 20.7612 16.6849 20.7612 16.6027C20.4747 15.9452 19.8302 15.1233 18.9707 14.2192C18.541 13.8082 18.3262 13.4795 18.1829 13.3151C17.9681 12.9863 17.9681 12.7397 18.0397 12.411C18.1113 12.1644 18.3978 11.7534 18.8991 11.0137C19.1856 10.6027 19.3288 10.3562 19.5437 10.1096C20.6179 8.46575 21.1193 7.39725 20.976 6.9041L20.9044 6.82192C20.8328 6.73973 20.7612 6.65754 20.6179 6.65754C20.4747 6.57535 20.2599 6.57535 20.045 6.65754H17.3235C17.2519 6.65754 17.2519 6.65754 17.1087 6.65754C17.0371 6.65754 16.9655 6.65754 16.9655 6.65754H16.8938H16.8222L16.7506 6.73972C16.679 6.82191 16.679 6.82191 16.679 6.9041C16.3925 7.80821 16.0344 8.54794 15.6763 9.36986C15.4615 9.78082 15.2466 10.1918 15.0318 10.5206C14.8169 10.8493 14.6737 11.0959 14.5304 11.2603C14.3872 11.4247 14.244 11.5068 14.1723 11.6712C14.1007 11.7534 13.9575 11.8356 13.9575 11.7534C13.8859 11.7534 13.8143 11.7534 13.8143 11.6712C13.7426 11.589 13.671 11.5068 13.5994 11.4247C13.5278 11.3425 13.5278 11.1781 13.4562 11.0137C13.4562 10.8493 13.4562 10.6849 13.4562 10.6027C13.4562 10.5205 13.4562 10.274 13.4562 10.1096C13.4562 9.86302 13.4562 9.69863 13.4562 9.61644C13.4562 9.36986 13.4562 9.0411 13.4562 8.71233C13.4562 8.38357 13.4562 8.13698 13.4562 7.9726C13.4562 7.80822 13.4562 7.56164 13.4562 7.39726C13.4562 7.15068 13.4562 6.98629 13.4562 6.9041C13.4562 6.82191 13.3846 6.65753 13.3846 6.57534C13.313 6.49315 13.2413 6.41095 13.1697 6.32876C13.0981 6.24657 12.9549 6.24657 12.8832 6.16438C12.5252 6.08219 12.0955 6 11.5941 6C10.4482 6 9.66045 6.08219 9.37398 6.24658C9.23074 6.32877 9.08751 6.41096 9.01589 6.57534C8.87265 6.73972 8.87265 6.82192 8.94427 6.82192C9.30236 6.90411 9.58883 7.06849 9.73207 7.31506L9.80369 7.47946C9.87531 7.56165 9.87529 7.72602 9.94691 7.9726C10.0185 8.21917 10.0185 8.46575 10.0185 8.79452C10.0185 9.28767 10.0185 9.78082 10.0185 10.1096C10.0185 10.5206 9.94691 10.7671 9.94691 11.0137C9.94691 11.2603 9.87531 11.4247 9.80369 11.5069C9.73207 11.6712 9.73206 11.7534 9.66044 11.7534C9.66044 11.7534 9.66044 11.8356 9.58882 11.8356C9.51721 11.8356 9.44559 11.9178 9.30236 11.9178C9.23074 11.9178 9.08751 11.8356 9.01589 11.7534C8.87265 11.6712 8.72942 11.5069 8.6578 11.3425C8.51457 11.1781 8.37133 10.9315 8.22809 10.6027C8.08486 10.274 7.87 9.94521 7.72676 9.45205L7.58354 9.12329C7.51192 8.95891 7.36868 8.63014 7.22545 8.21918C7.08221 7.80822 6.93897 7.47946 6.79574 7.0685C6.72412 6.90411 6.65251 6.82191 6.58089 6.73972H6.50927C6.50927 6.73972 6.43765 6.65754 6.36603 6.65754C6.29441 6.65754 6.2228 6.57534 6.15118 6.57534H3.57294C3.28647 6.57534 3.14324 6.65753 3.07162 6.73972L3 6.82192C3 6.82192 3 6.90411 3 6.9863C3 7.06849 3 7.15068 3.07162 7.31506C3.42971 8.30136 3.85941 9.28767 4.28912 10.274C4.71883 11.1781 5.14854 12 5.43501 12.5753C5.7931 13.1507 6.07956 13.726 6.43765 14.2192C6.79574 14.7123 7.01059 15.0411 7.0822 15.2055C7.22544 15.3699 7.29705 15.4521 7.36867 15.5342L7.58354 15.7808C7.72677 15.9452 7.94162 16.1918 8.22809 16.4384C8.51456 16.6849 8.87265 16.9315 9.23074 17.1781C9.58882 17.4247 10.0185 17.5891 10.4482 17.7534C10.9496 17.9178 11.3793 18 11.809 17.9178H12.8832C13.0981 17.9178 13.2413 17.8356 13.3846 17.6712L13.4562 17.589C13.4562 17.5068 13.5278 17.5069 13.5278 17.4247C13.5278 17.3425 13.5278 17.2603 13.5278 17.0959C13.5278 16.7671 13.5278 16.5206 13.5994 16.274C13.671 16.0274 13.671 15.863 13.7427 15.6986C13.8143 15.5343 13.8859 15.4521 13.9575 15.3699C14.0291 15.2877 14.1007 15.2055 14.1007 15.2055H14.1723C14.3156 15.1233 14.5304 15.2055 14.6737 15.3699C14.8885 15.5342 15.1034 15.7808 15.2466 16.0274C15.3898 16.274 15.6047 16.5206 15.8912 16.8493C16.1777 17.1781 16.3925 17.4247 16.5357 17.5069L16.7506 17.6712C16.8938 17.7534 17.0371 17.8356 17.2519 17.9178C17.4668 18 17.61 18 17.7532 18L20.1883 17.9178C20.4031 17.9178 20.6179 17.8356 20.7612 17.7534C20.9044 17.6712 20.976 17.589 20.976 17.4247C20.976 17.3425 20.976 17.1781 20.976 17.0959C20.8328 16.9315 20.8328 16.8493 20.8328 16.7671Z" fill="#FEFEFE"/>
</svg>
