<svg width="24" height="24" viewBox="0 0 24 24" fill="none" xmlns="http://www.w3.org/2000/svg">
<path d="M17.8618 5.83281C16.4224 4.39844 14.5032 3.60156 12.4774 3.60156C8.26594 3.60156 4.85409 7.00156 4.85409 11.1984C4.85409 12.5266 5.22726 13.8547 5.86698 14.9703L4.80078 18.9016L8.85235 17.8391C9.97186 18.4234 11.198 18.7422 12.4774 18.7422C16.6889 18.7422 20.1008 15.3422 20.1008 11.1453C20.0475 9.17969 19.3011 7.26719 17.8618 5.83281ZM16.1558 13.9078C15.9959 14.3328 15.2496 14.7578 14.8764 14.8109C14.5565 14.8641 14.13 14.8641 13.7036 14.7578C13.437 14.6516 13.0638 14.5453 12.6374 14.3328C10.7182 13.5359 9.49207 11.6234 9.38545 11.4641C9.27883 11.3578 8.5858 10.4547 8.5858 9.49844C8.5858 8.54219 9.06559 8.11719 9.22552 7.90469C9.38545 7.69219 9.59869 7.69219 9.75862 7.69219C9.86524 7.69219 10.0252 7.69219 10.1318 7.69219C10.2384 7.69219 10.3983 7.63906 10.5583 8.01094C10.7182 8.38281 11.0914 9.33906 11.1447 9.39219C11.198 9.49844 11.198 9.60469 11.1447 9.71094C11.0914 9.81719 11.0381 9.92344 10.9314 10.0297C10.8248 10.1359 10.7182 10.2953 10.6649 10.3484C10.5583 10.4547 10.4517 10.5609 10.5583 10.7203C10.6649 10.9328 11.0381 11.5172 11.6245 12.0484C12.3708 12.6859 12.9572 12.8984 13.1705 13.0047C13.3837 13.1109 13.4903 13.0578 13.5969 12.9516C13.7036 12.8453 14.0767 12.4203 14.1834 12.2078C14.29 11.9953 14.4499 12.0484 14.6098 12.1016C14.7698 12.1547 15.7294 12.6328 15.8893 12.7391C16.1025 12.8453 16.2091 12.8984 16.2625 12.9516C16.3158 13.1109 16.3158 13.4828 16.1558 13.9078Z" fill="#FEFEFE"/>
</svg>
