<svg width="190" height="36" viewBox="0 0 190 36" fill="none" xmlns="http://www.w3.org/2000/svg">
<path d="M18.3184 0.00585938C27.9674 0.252445 35.7139 8.21431 35.7139 18C35.7139 27.941 27.7195 35.9998 17.8574 36L17.3965 35.9941C7.74716 35.7478 0 27.7859 0 18C3.83487e-07 8.05888 7.99519 0 17.8574 0L18.3184 0.00585938ZM60.3574 20.8799H51.0713V29.5195H71.0713V36H45V14.7598H63.8623L60.3574 20.8799ZM86.0713 0L97.1426 15.1201L108.929 0H115V36H108.929V10.0801L97.1426 24.4805L86.0713 10.0801V36H80V0H86.0713ZM140.357 20.8799H131.071V29.5195H151.071V36H125V14.7598H143.862L140.357 20.8799ZM184.286 26.2803V0H190V36H184.286L165.714 10.4404V36H160V0H165.714L184.286 26.2803ZM17.8574 6C11.3539 6 6 11.3274 6 18C6 24.6726 11.3539 30 17.8574 30C24.3608 29.9998 29.7139 24.6725 29.7139 18C29.7139 11.3275 24.3608 6.00015 17.8574 6ZM71.0713 6.12012H45V0H71.0713V6.12012ZM151.071 6.12012H125V0H151.071V6.12012Z" fill="#1B1B1B"/>
</svg>
